<svg xmlns="http://www.w3.org/2000/svg" viewBox="0 0 121.018 72"><g fill="#2e2d2c"><path data-name="Pfad 5616" d="M78.171 3.616V34.14H3.532V3.616h74.639M81.7 0H0v37.673h81.7z"/><path data-name="Pfad 5617" d="M104.312 37.942v30.629H3.532V37.942h100.78m3.532-3.532H0V72h107.844z"/><path data-name="Pfad 5618" d="M117.481 3.616V34.14H81.953V3.616h35.528M121.018 0H78.421v37.673h42.6z"/><g><path data-name="Pfad 5619" d="M30.296 63.668l2.078-5.3h7.917l2.078 5.3h4.052l-8.042-20.655h-4.052l-8.021 20.655zm3.429-8.769l2.6-6.774 2.6 6.857h-5.242z"/><path data-name="Pfad 5620" d="M25.351 12.363h-6.234v16.893h-3.8V12.363H9.122V8.581h16.229z"/><path data-name="Pfad 5621" d="M44.841 29.256h-3.8V20.82h-9.207v8.436h-3.8V8.581h3.8v8.436h9.207V8.581h3.8z"/><path data-name="Rechteck 8440" d="M49.351 8.581h3.74v20.655h-3.74z"/><path data-name="Pfad 5622" d="M70.109 46.815v4.655h9.517v3.782h-9.517v4.655h10.618v3.8H66.306V43.033h14.421v3.761h-.062v.021z"/><path data-name="Rechteck 8441" d="M88.665 8.581h3.74v20.675h-3.74z"/><path data-name="Pfad 5623" d="M88.706 59.906V43.033h-3.74v20.675h13.423v-3.8z"/><path data-name="Pfad 5624" d="M64.519 29.735c4.488 0 7.626-2.618 7.626-6.379 0-3.221-2.078-5.216-6.442-6.234l-2.473-.5c-1.579-.374-2.348-1.143-2.348-2.327a2.93 2.93 0 013.325-2.66 3.179 3.179 0 013.366 3.138h3.886a6.753 6.753 0 00-7.252-6.67c-4.156 0-7.46 2.66-7.46 6.068 0 2.888 2.078 5.049 5.777 5.881l2.514.6c1.891.416 2.93 1.413 2.93 2.764s-1.226 2.743-3.574 2.743a4.634 4.634 0 01-2.909-.914 3.844 3.844 0 01-1.392-2.992h-3.927a7.751 7.751 0 008.353 7.481z"/><path data-name="Pfad 5625" d="M55.376 64.187c4.488 0 7.626-2.618 7.626-6.379 0-3.221-2.078-5.216-6.442-6.234l-2.473-.561c-1.579-.416-2.348-1.143-2.348-2.369a2.93 2.93 0 013.262-2.556 3.2 3.2 0 013.392 3.138h3.886a6.753 6.753 0 00-7.127-6.67c-4.156 0-7.46 2.66-7.46 6.068 0 2.888 2.078 5.049 5.777 5.881l2.514.6c1.891.416 2.951 1.413 2.951 2.764s-1.226 2.743-3.574 2.743a4.738 4.738 0 01-2.93-.914 3.761 3.761 0 01-1.371-2.992h-4.036a7.751 7.751 0 008.353 7.481z"/><path data-name="Pfad 5626" d="M103.689 29.735c4.488 0 7.605-2.618 7.605-6.379 0-3.221-2.078-5.216-6.442-6.234l-2.452-.5c-1.579-.373-2.323-1.142-2.323-2.323a2.909 2.909 0 013.242-2.556 3.2 3.2 0 013.387 3.138h3.881a6.753 6.753 0 00-7.11-6.782c-4.156 0-7.46 2.66-7.46 6.068 0 2.888 2.078 5.049 5.777 5.881l2.493.6c1.912.416 2.951 1.413 2.951 2.764s-1.226 2.743-3.574 2.743a4.738 4.738 0 01-2.93-.914 3.761 3.761 0 01-1.371-2.992h-3.986a7.751 7.751 0 008.312 7.481z"/><path data-name="Pfad 5627" d="M22.172 53.066a5.444 5.444 0 002.348-4.468 5.943 5.943 0 00-6.232-5.668h-8.48v20.779H19.2a6.026 6.026 0 006.234-5.714 5.631 5.631 0 00-3.262-4.929zm-8.519-6.442h4.842a2.182 2.182 0 012.369 2.452 2.286 2.286 0 01-2.369 2.306h-4.843zm5.61 13.631h-5.61v-5.024h5.61a2.244 2.244 0 012.306 2.494c0 .141-.062 2.535-2.306 2.535z"/></g></g></svg>